<?xml version="1.0" standalone="no"?>
<!DOCTYPE svg PUBLIC "-//W3C//DTD SVG 20010904//EN"
 "http://www.w3.org/TR/2001/REC-SVG-20010904/DTD/svg10.dtd">
<svg version="1.0" xmlns="http://www.w3.org/2000/svg"
 width="260.000000pt" height="260.000000pt" viewBox="0 0 260.000000 260.000000"
 preserveAspectRatio="xMidYMid meet">
<metadata>
Created by potrace 1.11, written by Peter Selinger 2001-2013
</metadata>
<g transform="translate(0.000000,260.000000) scale(0.100000,-0.100000)"
fill="#000000" stroke="none">
<path d="M150 1295 l0 -1195 156 0 157 0 -5 1001 -5 1001 264 -774 c146 -425
299 -874 341 -998 l77 -225 162 -3 161 -2 20 57 c11 32 161 477 334 988 174
512 318 937 320 945 3 8 3 -436 0 -988 l-5 -1002 156 0 157 0 0 1195 0 1195
-228 0 -229 0 -339 -1005 c-186 -553 -341 -1005 -344 -1005 -3 0 -158 451
-345 1003 l-340 1002 -233 3 -232 2 0 -1195z"/>
</g>
</svg>
